<svg width="671" height="693" viewBox="0 0 671 693" fill="none" xmlns="http://www.w3.org/2000/svg">
<path d="M518.048 676C501.696 686.404 447.117 707.992 446.048 674C445.887 668.879 449.737 660.175 449.048 655.5C448.77 653.617 443.989 648.087 443.048 645.5C436.41 627.25 431.76 624.83 443.048 608C443.502 607.323 446.064 607.128 446.048 604.5C438.942 595.222 436.909 584.922 428.048 577C419.99 569.795 409.086 566.758 400.548 560C392.936 553.976 389.156 545.731 384.048 541C382.933 532.285 382.752 522.656 371.548 524L371.048 532C361.438 530.557 354.428 554.697 353.048 562.5C350.885 574.728 352.105 587.026 354.548 599C336.566 596.367 312.879 586.486 299.548 574C294.759 569.514 287.86 555.099 282.548 557C281.587 557.344 274.123 571.986 272.048 574.5C263.991 584.259 250.864 593.708 238.548 597C231.813 598.8 209.598 599.321 206.548 601C205.361 601.654 190.474 621.214 190.048 622.5C188.839 626.149 190.922 629.467 190.048 631.5C183.494 646.754 165.524 664.569 151.048 673C136.688 681.363 121.19 685.944 107.048 674C70.8807 643.455 133.815 562.517 161.548 545C180.027 533.328 179.509 547.577 187.548 555C188.402 555.789 200.748 564.683 201.548 565C202.453 565.358 203.647 567.674 204.048 564.5C198.033 558.46 191.103 546.695 189.048 538.5C186.544 528.514 187.795 519.789 186.548 510C180.502 511.588 170.862 503.824 166.548 504C164.282 504.092 145.39 513.073 142.548 515C135.589 519.719 130.67 526.528 125.548 533C107.251 506.822 99.8237 465.322 130.048 444.5C121.456 424.98 116.989 432.86 101.548 432C88.0347 431.248 72.4017 426.272 60.0477 433.5C75.0437 441.777 89.0237 448.835 99.0477 463.5C108.26 476.978 110.804 487.879 101.048 502.5C92.5557 515.227 82.6167 523.826 68.0477 528C62.6237 528.732 58.0837 526.813 53.5477 524L63.0477 531C57.6887 531.883 34.1947 531.846 29.5477 530C26.8727 528.937 23.9587 524.106 23.5477 524C22.3337 523.687 17.7147 526.042 12.5477 524C2.26568 519.935 -0.405323 502.984 0.0476769 493.5C1.63768 460.178 14.6637 384.895 34.0477 358.5C36.8517 354.682 50.8567 342.687 51.0477 341.5C52.0277 335.412 25.6457 335.528 21.5477 337C27.1137 312.053 47.2787 289.036 71.5477 280C75.1217 278.669 83.9017 278.727 85.5477 278C86.4417 277.605 89.1237 265.207 89.0477 264.5C88.8077 262.25 60.2117 235.474 56.5477 233C47.4587 226.862 38.5157 225.263 29.0477 220.5C44.6907 201.661 74.2507 180.951 99.5477 184C102.021 184.298 113.594 189.32 114.548 189C115.174 188.79 120.963 178.155 121.048 177.5C121.344 175.214 104.164 138.775 102.048 135.5C96.9867 127.667 87.4967 120.091 80.0477 114.5C100.154 103.572 132.621 96.756 154.548 105C160.503 107.239 171.408 119.001 172.548 119C173.436 119 185.838 108.363 186.048 107.5C186.413 106.002 184.051 100.614 184.048 99.5C184.025 89.183 185.203 75.27 184.048 65.5C182.717 54.247 175.805 45.62 173.548 35C196.075 35.108 225.958 40.547 242.048 57.5C245.317 60.944 253.409 76.79 254.548 77C255.484 77.173 271.571 70.324 272.048 69.5C272.333 55.107 283.397 42.191 285.048 28.5C286.193 19.006 283.21 9.357 284.548 0C305.331 6.393 333.963 20.951 342.048 42.5C343.974 47.634 345.449 65.398 346.048 66.5C346.521 67.37 364.583 70.226 365.548 70C367.901 69.449 394.327 35.809 396.048 32.5C397.743 29.241 402.488 11.057 404.548 11C426.809 28.628 444.208 54.987 441.048 84.5C440.779 87.01 435.854 97.782 436.048 98.5C436.271 99.325 448.335 106.647 449.548 109C471.466 96.13 496.613 93.858 512.548 72C523.644 92.929 530.806 129.825 516.048 150.5C513.789 153.665 502.105 162.546 502.048 163.5C501.992 164.434 511.327 176.85 512.548 179C536.221 176.86 559.514 180.225 583.048 176.5C582.325 197.861 572.263 227.953 554.548 241C542.061 250.197 535.003 242.53 540.048 264.5C563.436 272.963 584.567 289.237 610.548 288C600.474 312.272 570.777 345.827 540.548 340C534.343 348.56 568.951 343.758 573.548 343C597.552 339.042 630.098 325.602 627.048 296.5C625.205 278.912 608.934 280.19 597.548 268C586.233 255.886 589.511 255.264 588.048 241.5C587.79 239.072 584.596 235.48 585.048 230.5C585.616 224.244 592.86 219.599 593.048 218.5C593.231 217.43 590.408 211.096 591.048 206.5C595.148 177.059 665.015 192.865 670.048 226.5C674.211 254.324 653.888 264.041 653.048 288.5C651.644 329.383 656.672 348.947 617.548 376C612.078 379.782 599.066 383.924 596.548 386C596.04 386.418 594.475 392.233 589.548 396C575.905 406.43 557.303 419.671 539.548 421C530.959 421.643 523.461 418.005 517.548 418C513.095 417.997 508.64 430.819 509.048 433.5C509.173 434.323 516.651 444.146 518.048 447.5C526.647 468.15 529.892 479.059 550.048 492.5C521.55 505.254 480.003 517.836 456.548 490C456.335 494.662 447.954 501.195 447.048 503.5C446.47 504.969 440.819 532.938 441.048 534.5C441.438 537.156 467.145 578.803 469.548 580C472.203 581.322 482.7 580.102 485.548 585L505.548 569C521.795 566.928 532.149 550.855 549.548 549C572.112 546.594 603.18 566.422 597.048 591.5C593.537 605.861 532.457 666.832 518.048 676ZM248.048 92C246.453 65.03 224.545 52.118 200.048 49C197.748 48.707 195.496 46.982 193.048 48.5C206.561 69.189 199.992 89.643 199.048 112.5C191.398 118.79 176.328 125.851 172.048 135C157.091 109.592 134.634 106.392 108.048 116C107.117 116.336 102.514 116.124 103.048 118.5C109.2 121.853 116.33 127.57 120.048 133.5C122.52 137.441 135.445 176.154 135.048 178.5C134.632 180.958 121.335 198.324 119.048 202C93.7197 189.322 73.8387 192.223 53.0477 212C52.3367 212.676 47.9177 214.293 49.5477 216C58.6767 218.461 69.1437 222.834 76.5477 229C79.0427 231.078 102.758 258.462 103.048 260.5C103.464 263.422 94.8617 284.284 94.0477 289C70.1307 280.279 51.4087 300.416 41.0477 319.5C53.8987 314.165 73.0417 309.251 84.5477 317C75.0057 316.649 53.0337 321.782 55.5477 333C61.5277 333.094 67.6737 332.527 73.5477 334C83.1357 336.405 84.5337 344.493 97.5477 335C99.8137 333.347 98.4827 329.125 101.548 328C108.899 325.302 118.446 334.392 126.548 334C124.174 310.059 124.36 286.129 129.048 262.5C130.162 256.887 139.017 234.081 139.048 232.5C139.111 229.27 133.168 223.813 135.048 214.5C137.084 204.413 145.933 206.785 150.548 204C152.848 202.612 168.737 176.728 173.048 171.5C247.654 81.024 382.227 84.351 457.048 172.5C461.106 177.28 473.844 198.368 476.548 200C482.007 203.295 495.38 202.241 501.048 208C502.298 210.198 503.991 214.592 504.048 217C504.464 234.544 492.543 233.908 492.048 237.5C491.903 238.55 498.399 254.272 499.048 257.5C504.775 285.967 505.186 314.86 500.048 343.5C500.972 345.385 523.809 345.725 525.548 345C528.573 343.74 528.907 330.453 529.548 330C529.944 329.72 537.376 332.935 538.548 333C560.803 334.233 569.677 323.381 584.048 309C586.752 306.294 590.076 304.001 592.548 301L591.548 299C581.865 305.892 533.391 278.716 531.048 273.5C528.697 268.265 529.648 250.228 526.048 243.5C532.291 241.792 536.115 240.786 542.048 238C562.196 228.54 565.375 212.455 571.048 192.5L569.048 191C548.729 201.402 527.708 193.033 506.548 191C504.619 187.247 487.828 164.185 488.048 162.5C488.201 161.33 491.607 160.155 492.048 159C519.858 147.538 516.248 116.869 509.048 93C503.418 98.951 497.822 105.893 490.548 110C487.043 111.979 451.703 124.219 449.548 124C447.866 123.829 428.536 104.336 423.048 103C439.486 79.609 433.238 61.688 417.048 41C415.218 38.662 414.12 33.907 410.548 32C407.164 40.501 405.481 47.79 400.048 55.5C397.599 58.975 371.626 83.8 369.548 84C365.872 84.354 343.539 75.861 337.048 77C342.267 50.769 324.997 25.874 300.048 18C298.447 17.495 298.731 16.32 297.048 18.5C298.179 23.9 299.546 31.039 299.048 36.5C298.381 43.823 284.077 80.602 278.548 83C275.492 84.325 265.69 84.559 261.548 86C256.632 87.711 253.801 94.122 248.048 92ZM179.048 198C212.228 194.257 248.758 191.489 281.548 199C294.763 202.027 306.843 210.561 320.548 210C333.694 209.462 348.506 200.777 361.548 198C389.439 192.062 417.809 192.637 446.048 195C448.438 195.2 459.395 198.743 461.048 196.5C392.891 88.956 233.919 90.294 167.048 198.5C167.493 202.246 177.222 198.206 179.048 198ZM609.548 199C607.387 199.341 600.029 203.367 599.048 205.5C595.794 212.573 600.728 217.358 600.048 220.5C599.56 222.753 587.566 229.067 593.548 234C595.629 230.395 610.505 229.239 611.048 228.5C612.406 226.653 604.942 212.291 611.048 207.5C612.408 206.433 611.719 208.429 612.548 209L620.048 199.5C619.442 198.752 611.07 198.76 609.548 199ZM604.048 248C612.441 256.453 630.745 252.649 626.048 238C623.58 230.301 584.078 232.035 597.048 254.5C610.372 277.579 638.021 270.594 633.048 308.5C625.366 367.057 510.846 350.575 471.048 353C471.224 351.715 470.935 350.303 471.048 349C471.189 348.909 470.757 346.776 472.548 346C475.612 344.673 484.537 345.779 486.548 345C491.214 343.191 491.788 317.552 492.048 312C492.95 292.746 491.961 274.208 487.048 255.5L481.048 279C460.183 327.289 367.678 322.669 342.048 281.5C337.259 273.807 329.372 242.408 319.548 244C309.799 245.58 301.97 275.545 297.048 283.5C272.376 323.377 175.267 325.628 159.048 278.5C155.537 268.299 157.112 247.39 151.048 242C149.553 240.671 149.079 237.431 147.048 240.5C146.448 244.882 144.336 248.857 143.048 253C109.417 361.187 192.855 476.899 304.548 483C381.606 487.209 445.508 443.363 478.548 376C482.031 375.846 485.584 376.216 489.048 376L494.048 379C492.739 378.822 490.732 377.191 488.548 378C487.237 380.228 486.41 382.824 485.048 385C481.417 390.803 478.754 398.709 475.048 404.5C380.527 552.208 165.729 507.642 129.048 341.5C122.903 343.554 118.64 345.026 112.048 346C106.222 346.861 99.7587 344.556 94.0477 347.5C98.5327 351.214 99.4957 357.449 100.048 363C73.3677 368.112 62.5227 382.401 62.0477 410C61.9957 413.006 59.4957 415.602 62.5477 418C67.8537 415.983 73.8657 412.658 79.5477 412C84.9037 411.38 117.39 414.093 121.548 416C124.546 417.375 142.139 439.32 144.048 444C118.628 454.036 115.435 484.694 125.048 507C125.567 508.205 126.111 512.908 127.548 513C132.071 506.979 138.027 498.891 144.548 495C149.317 492.154 160.969 490.037 162.548 489C164.607 487.648 162.373 470.348 165.048 467C166.68 465.745 172.97 455.104 175.048 460C174.541 460.832 173.236 466.588 173.048 468C171.514 479.529 172.927 482.942 180.048 491C182.672 493.969 183.74 494.843 187.048 497C193.747 501.367 200.989 503.479 208.048 507C207.515 507.038 198.038 508.787 197.548 509C194.11 510.496 196.149 516.165 196.048 517C194.368 530.929 202.044 547.816 212.048 558C212.728 558.692 215.961 563.08 216.548 563C219.849 540.564 231.997 533.206 251.048 524.5C251.115 523.119 237.051 522.448 233.048 516C231.958 514.244 228.29 498.395 227.048 496.5C225.646 494.36 215.046 488.147 213.048 488L216.048 483C220.434 484.92 229.399 487.751 235.048 490C235.005 492.363 238.701 495.61 239.048 497.5C239.999 502.676 236.972 506.243 237.048 507.5C237.597 516.619 289.001 524.871 298.048 525C297.936 525.602 301.476 528.528 300.048 530.5C299.672 531.02 291.587 532.393 291.048 538.5C290.901 540.161 296.612 555.115 298.048 557.5C304.096 567.547 316.805 574.035 327.048 579C328.62 579.762 339.76 586.816 341.048 584.5C333.718 570.816 340.335 556.449 344.048 543C345.021 539.477 347.921 535.551 347.048 532C345.74 529.802 337.212 532.361 335.548 532C330.997 531.012 319.184 523.029 319.048 529C314.201 524.846 308.376 521.514 303.048 518C302.609 517.711 301.783 516.019 300.048 515L298.548 508C309.635 512.758 322.831 518.38 335.048 519C349.014 519.709 353.033 514.384 362.048 513C368.369 512.03 375.206 514.795 381.048 517C386.999 519.246 394.078 523.139 399.048 527C418.76 542.31 438.258 574.366 448.048 597C451.234 604.366 448.139 608.477 458.548 605C461.831 602.365 457.918 592.093 459.048 587.5C459.543 585.487 464.026 581.89 464.048 581.5C464.294 577.175 415.867 516.737 410.048 514L415.048 508C419.759 513.4 429.082 517.566 433.548 524C436.25 523.922 430.727 512.899 430.048 512C433.659 507.07 430.624 495.434 432.048 491.5C432.356 490.648 444.401 481.21 446.048 480C451.974 475.647 451.283 477.376 454.048 476C472.029 500.779 492.551 500.727 520.048 493C522.617 492.278 527.431 491.55 529.048 489.5C521.449 486.477 513.305 480.593 509.048 473.5C507.104 470.262 495.932 434.647 496.048 432.5C496.104 431.473 503.881 416.084 505.048 414C506.768 410.927 507.692 407.362 510.548 405C536.588 422.12 558.973 408.094 579.048 390C580.901 389.603 587.103 385.269 590.548 386C591.304 385.199 587.827 382.067 587.548 382C586.604 381.773 572.411 392.826 569.048 393C551.474 393.912 502.383 387.357 485.048 385L488.548 378C486.327 375.658 491.669 376.728 489.048 376C486.354 375.252 544.048 368.5 543.048 378C562.662 379.101 591.928 374.824 610.548 367C625.822 360.582 638.356 349.404 643.048 333C648.806 312.868 642.517 299.344 644.048 282.5C645.98 261.239 673.159 241.928 657.048 216.5C653.088 210.25 630.76 198.773 624.548 200C610.557 202.765 613.688 237.283 625.548 229C626.821 228.111 625.718 202.325 641.548 207C629.644 211.015 623.389 243.772 640.548 238C647.72 235.587 639.959 224.848 645.548 221C654.228 228.557 654.563 239.971 642.548 244C639.564 245.001 633.02 243.835 632.548 244C631.448 244.383 628.299 256.36 620.548 258C615.385 259.092 605.1 256.679 603.048 251.5C601.254 246.973 603.904 248.218 604.048 248ZM413.548 206C373.828 206.739 319.18 212.268 347.048 266.5C371.405 313.899 469.943 319.012 474.048 248.5C476.515 206.127 449.435 205.333 413.548 206ZM214.548 208C173.615 210.33 158.651 214.428 166.048 258.5C175.071 312.258 258.264 312.935 285.048 277.5C293.432 266.408 306.3 235.256 298.048 222.5C289.021 208.546 230.664 207.083 214.548 208ZM265.548 529C260.154 563.028 239.28 580.314 204.548 576C201.912 575.673 194.33 571.536 192.548 572C187.978 573.19 180.668 595.33 193.548 593C193.903 592.936 195.055 589.67 199.548 589C202.657 588.536 222.943 586.359 223.048 588.5L218.548 593C251.497 592.803 272.799 562.119 284.048 534.5L282.548 532L265.548 529ZM390.548 532C392.059 545.995 404.711 554.127 415.548 561C417.081 558.941 415.506 558.282 414.548 557C412.933 554.839 392.044 531.125 390.548 532ZM251.548 542C249.866 541.878 228.283 561.536 229.548 567C234.425 568.855 259.376 542.568 251.548 542ZM171.548 547C159.459 548.494 108.417 617.82 104.048 631.5C99.0607 647.117 102.184 666.917 119.048 671.5C108.61 661 109.586 643.661 114.048 630.5C118.442 617.538 160.238 564.863 171.548 556C172.81 555.011 179.836 552.908 180.048 552.5C179.683 547.525 175.653 546.493 171.548 547ZM180.548 556C176.44 556.409 167.156 566.266 164.048 569.5C155.98 577.895 136.236 601.948 130.048 611.5C129.209 612.794 125.121 617.898 126.548 619C133.343 616.692 146.666 630.114 150.048 624.5C153.94 618.038 149.773 608.367 165.048 615.5C165.654 614.084 158.422 610.283 162.048 603.5C163.228 601.293 175.739 596.993 177.048 594.5C177.397 593.836 176.13 583.399 177.048 579.5C178.482 573.411 185.202 564.487 192.048 563.5C190.59 559.686 184.341 555.623 180.548 556ZM533.048 564C530.822 565.15 518.534 573.172 518.048 574.5C517.875 574.972 519.82 580.346 517.048 584.5C515.619 586.641 509.777 589.564 506.048 594C503.801 593.912 502.889 596.291 503.048 593C504.272 590.2 507.375 587.71 502.548 585L502.048 594C499.774 598.179 498.66 598.119 496.048 601C491.607 597.921 487.723 609.956 483.548 610C480.427 610.033 480.762 604.504 477.048 609.5C473.852 613.8 473.815 618.549 476.048 623C476.403 623.708 475.248 625.935 477.048 626C475.69 627.892 473.181 629.751 473.048 630C466.594 612.572 476.615 603.972 483.048 590.5C456.656 580.792 469.387 598.39 465.048 607.5C461.573 614.796 445.979 608.903 444.048 620.5C442.113 632.119 459.443 650.088 455.048 663.5C460.944 661.893 465.571 655.825 470.048 653C470.124 652.952 470.297 654.812 471.548 654C489.255 642.51 519.742 619.461 515.048 596C516.664 594.897 527.476 573.824 531.048 569L528.548 578C538.819 567.172 552.333 561.379 567.048 559.5C555.576 554.007 543.432 558.636 533.048 564ZM562.548 565C542.812 567.299 505.456 592.349 534.548 611C545.439 600.838 559.036 581.102 574.548 578C577.058 577.498 588.755 579.443 589.048 577.5C582.527 565.35 575.866 563.449 562.548 565ZM187.548 569C178.991 577.079 176.443 595.023 189.548 600C177.611 589.816 182.835 581.182 187.548 569ZM513.548 574C512.927 574.018 505.994 584.423 509.548 585C513.593 585.656 517.845 573.874 513.548 574ZM497.548 584L494.548 595C497.77 595.077 500.945 586.021 497.548 584ZM579.548 584C563.188 586.233 525.459 637.098 510.548 651C497.738 662.943 483.368 673.446 469.048 683.5C483.77 684.095 501.019 676.736 513.548 669C528.5 659.768 575.353 612.48 584.048 597.5C588.777 589.352 593.491 582.097 579.548 584ZM487.548 595L488.548 602C491.374 601.139 489.01 594.104 487.548 595ZM175.548 597C174.597 597.229 172.378 600.19 173.048 601.5C180.886 603.349 183.672 609.585 186.548 616C194.405 612.228 178.894 596.196 175.548 597ZM195.548 601C186.059 599.757 187.218 608.301 190.548 609C192.225 609.352 198.543 601.392 195.548 601ZM166.548 602L164.048 607.5C170.99 606.258 181.055 630.019 182.548 630C195.077 629.836 172.552 602.895 166.548 602ZM521.548 602C519.859 619.786 502.8 636.013 489.548 647C484.227 651.411 453.798 669.434 453.048 671.5C451.947 674.535 454.875 680.286 457.548 682C486.163 662.873 512.092 640.009 534.048 613.5C527.99 611.112 523.914 608.243 521.548 602ZM156.548 615C145.507 617.286 161.781 624.151 164.048 626.5C166.576 629.119 172.835 643.09 174.548 643C175.58 641.531 179.246 639.343 179.048 637.5C178.787 635.063 161.523 613.97 156.548 615ZM123.548 621C115.752 623.487 107.543 674.727 132.548 673C141.218 672.401 157.85 658.92 164.048 652.5C156.323 645.244 136.079 617.003 123.548 621ZM151.548 625C150.917 625.143 148.941 627.451 149.048 628.5C149.189 629.89 164.918 647.908 167.548 649C174.757 647.327 155.134 624.189 151.548 625Z" fill="#562808"/>
<path d="M300.048 17.9999C318.081 41.9489 305.424 65.3069 303.048 91.4999C293.3 92.9009 283.236 93.2629 273.548 94.9999C268.608 95.8859 250.065 103.066 247.048 99.4999C244.126 96.0459 248.201 94.5799 248.048 91.9999C253.801 94.1219 256.632 87.7109 261.548 85.9999C265.69 84.5589 275.492 84.3249 278.548 82.9999C284.077 80.6019 298.381 43.8229 299.048 36.4999C299.546 31.0389 298.179 23.8999 297.048 18.4999C298.731 16.3199 298.447 17.4949 300.048 17.9999Z" fill="#F4BB36"/>
<path d="M337.048 77C335.624 84.157 332.512 79.449 331.048 81.5C330.442 82.35 331.663 89.231 332.548 90C334.451 91.655 375.323 97.706 381.548 102C392.532 87.623 406.662 75.404 412.048 57.5C413.02 54.27 412.599 35.668 417.048 41C433.238 61.688 439.486 79.609 423.048 103C415.091 101.063 411.431 106.147 408.048 112.5L455.548 147C477.809 134.724 511.461 123.888 509.048 93C516.248 116.869 519.858 147.538 492.048 159C482.263 163.033 483.222 158.949 481.548 159C480.442 159.034 467.024 159.772 467.048 160.5C478.671 172.554 484.906 189.274 494.048 202.5C495.075 203.986 498.431 203.398 501.048 208C495.38 202.241 482.007 203.295 476.548 200C473.844 198.368 461.106 177.28 457.048 172.5C382.227 84.351 247.654 81.024 173.048 171.5C168.737 176.728 152.848 202.612 150.548 204C145.933 206.785 137.084 204.413 135.048 214.5C133.168 223.813 139.111 229.27 139.048 232.5C139.017 234.081 130.162 256.887 129.048 262.5C124.36 286.129 124.174 310.059 126.548 334C118.446 334.392 108.899 325.302 101.548 328C98.4826 329.125 99.8136 333.347 97.5476 335C84.5336 344.493 83.1356 336.405 73.5476 334C67.6736 332.527 61.5276 333.094 55.5476 333C53.0336 321.782 75.0056 316.649 84.5476 317C73.0416 309.251 53.8986 314.165 41.0476 319.5C51.4086 300.416 70.1306 280.279 94.0476 289C97.5006 290.259 104.374 296.653 108.048 298.5L118.048 243.5C98.7436 228.762 79.3886 209.427 53.0476 212C73.8386 192.223 93.7196 189.322 119.048 202C124.592 204.775 126.957 208.539 132.548 210L157.048 168.5C143.246 148.18 135.493 121.475 108.048 116C134.634 106.392 157.091 109.592 172.048 135C168.989 141.538 169.728 143.858 177.548 145L221.048 112.5C217.484 86.775 220.7 70.019 200.048 51.5C197.795 49.48 197.487 51.574 200.048 49C224.545 52.118 246.453 65.03 248.048 92C248.201 94.58 244.126 96.046 247.048 99.5C250.065 103.066 268.608 95.886 273.548 95C283.236 93.263 293.3 92.901 303.048 91.5C305.424 65.307 318.081 41.949 300.048 18C324.997 25.874 342.267 50.769 337.048 77ZM107.548 302C106.492 302.128 94.6106 310.848 95.0476 311.5L115.548 310C115.325 305.781 111.55 301.515 107.548 302Z" fill="#FCDF36"/>
<path d="M417.047 41C412.598 35.668 413.019 54.27 412.047 57.5C406.661 75.404 392.531 87.623 381.547 102C375.322 97.706 334.45 91.655 332.547 90C331.662 89.231 330.441 82.35 331.047 81.5C332.511 79.449 335.623 84.157 337.047 77C343.538 75.861 365.871 84.354 369.547 84C371.625 83.8 397.598 58.975 400.047 55.5C405.48 47.79 407.163 40.501 410.547 32C414.119 33.907 415.217 38.662 417.047 41Z" fill="#F5BB36"/>
<path d="M200.048 49C197.487 51.574 197.795 49.48 200.048 51.5C220.7 70.019 217.484 86.775 221.048 112.5L177.548 145C169.728 143.858 168.989 141.538 172.048 135C176.328 125.851 191.398 118.79 199.048 112.5C199.992 89.643 206.561 69.189 193.048 48.5C195.496 46.982 197.748 48.707 200.048 49Z" fill="#F4BB36"/>
<path d="M423.048 103C428.536 104.336 447.866 123.829 449.548 124C451.703 124.219 487.043 111.979 490.548 110C497.822 105.893 503.418 98.951 509.048 93C511.461 123.888 477.809 134.724 455.548 147L408.048 112.5C411.431 106.147 415.091 101.063 423.048 103Z" fill="#F5BB36"/>
<path d="M108.048 116C135.493 121.475 143.246 148.18 157.048 168.5L132.548 210C126.957 208.539 124.592 204.775 119.048 202C121.335 198.324 134.632 180.958 135.048 178.5C135.445 176.154 122.52 137.441 120.048 133.5C116.33 127.57 109.2 121.853 103.048 118.5C102.514 116.124 107.117 116.336 108.048 116Z" fill="#F4BB36"/>
<path d="M446.048 195C383.979 99.803 241.586 106.58 179.048 198C177.222 198.206 167.493 202.246 167.048 198.5C233.919 90.294 392.891 88.956 461.048 196.5C459.395 198.743 448.438 195.2 446.048 195Z" fill="#EDA448"/>
<path d="M446.048 195C417.809 192.637 389.439 192.062 361.548 198C348.506 200.777 333.694 209.462 320.548 210C306.843 210.561 294.763 202.027 281.548 199C248.758 191.489 212.228 194.257 179.048 198C241.586 106.58 383.979 99.8031 446.048 195ZM398.548 162C387.91 163.151 378.819 172.313 373.548 181C395.392 172.811 411.62 174.474 433.048 182.5C424.25 170.395 414.843 160.237 398.548 162ZM235.548 163C224.803 164.203 214.64 174.535 210.548 184C231.601 174.154 248.567 174.829 270.048 182.5C261.612 170.229 251.437 161.22 235.548 163Z" fill="#FDE036"/>
<path d="M492.048 159C491.607 160.155 488.201 161.33 488.048 162.5C487.828 164.185 504.619 187.247 506.548 191C527.708 193.033 548.729 201.402 569.048 191C558.418 213.488 524.2 207.853 504.048 217C503.991 214.592 502.298 210.198 501.048 208C498.431 203.398 495.075 203.986 494.048 202.5C484.906 189.274 478.671 172.554 467.048 160.5C467.024 159.772 480.442 159.034 481.548 159C483.222 158.949 482.263 163.033 492.048 159Z" fill="#F5BD36"/>
<path d="M398.548 162C414.843 160.237 424.25 170.395 433.048 182.5C411.62 174.474 395.392 172.811 373.548 181C378.819 172.313 387.91 163.151 398.548 162Z" fill="#562808"/>
<path d="M235.548 163C251.437 161.22 261.612 170.229 270.048 182.5C248.567 174.829 231.601 174.154 210.548 184C214.64 174.535 224.803 164.203 235.548 163Z" fill="#562808"/>
<path d="M542.048 238C538.713 237.15 525.63 242.702 523.548 242C521.23 241.218 522.953 237.15 520.548 236C517.477 234.532 510.608 235.539 507.048 232.5L519.048 295.5C534.801 299.633 550.093 309.101 566.548 310C571.785 310.286 579.442 306.485 584.048 309C569.677 323.381 560.803 334.233 538.548 333C537.376 332.935 529.944 329.72 529.548 330C528.907 330.453 528.573 343.74 525.548 345C523.809 345.725 500.972 345.385 500.048 343.5C505.186 314.86 504.775 285.967 499.048 257.5C498.399 254.272 491.903 238.55 492.048 237.5C492.543 233.908 504.464 234.544 504.048 217C524.2 207.853 558.418 213.488 569.048 191L571.048 192.5C565.375 212.455 562.196 228.54 542.048 238ZM520.548 325C508.376 353.119 533.346 342.869 527.048 332.5C526.76 332.026 519.337 331.341 520.548 325Z" fill="#FCDF36"/>
<path d="M643.048 333C634.842 337.318 632.185 347.138 624.548 353C607.628 365.986 559.66 373.329 538.048 375C521.684 376.265 505.308 374.988 489.048 376C485.584 376.216 482.031 375.846 478.548 376C445.508 443.363 381.606 487.209 304.548 483C192.855 476.899 109.417 361.187 143.048 253C147.449 254.785 149.728 244.828 151.048 242C157.112 247.39 155.537 268.299 159.048 278.5C175.267 325.628 272.376 323.377 297.048 283.5C301.97 275.545 309.799 245.58 319.548 244C329.372 242.408 337.259 273.807 342.048 281.5C367.678 322.669 460.183 327.289 481.048 279V332.5C484.114 334.503 484.495 330.408 485.048 328.5C485.331 327.523 486.833 305.15 489.048 309.5L488.548 315L492.048 312C491.788 317.552 491.214 343.191 486.548 345C484.537 345.779 475.612 344.673 472.548 346C470.757 346.776 471.189 348.909 471.048 349C469.253 350.158 459.48 359.38 459.048 360.5C458.078 363.011 461.854 363.158 460.048 366.5C454.996 375.849 436.956 394.866 428.548 402C349.491 469.079 227.791 445.54 174.048 360.5C160.624 339.258 154.74 316.566 147.548 293C139.433 355.28 175.611 418.242 228.548 450C284.447 483.536 349.554 485.675 404.548 449C433.559 429.653 466.24 388.166 471.048 353C510.846 350.575 625.366 367.057 633.048 308.5C638.021 270.594 610.372 277.579 597.048 254.5C584.078 232.035 623.58 230.301 626.048 238C621.9 241.257 617.508 243.287 612.548 245C607.54 246.73 608.078 241.93 604.048 248C603.904 248.218 601.254 246.973 603.048 251.5C605.1 256.679 615.385 259.092 620.548 258C628.299 256.36 631.448 244.383 632.548 244C633.02 243.835 639.564 245.001 642.548 244C654.563 239.971 654.228 228.557 645.548 221C639.959 224.848 647.72 235.587 640.548 238C623.389 243.772 629.644 211.015 641.548 207C625.718 202.325 626.821 228.111 625.548 229C613.688 237.283 610.557 202.765 624.548 200C630.76 198.773 653.088 210.25 657.048 216.5C673.159 241.928 645.98 261.239 644.048 282.5C642.517 299.344 648.806 312.868 643.048 333ZM367.548 325C351.977 326.379 335.693 333.581 317.548 334C300.772 334.387 267.799 325.868 255.548 328C239.392 330.812 248.629 352.875 254.048 361.5C275.28 395.296 329.274 400.789 360.548 379C377.067 367.491 406.035 321.593 367.548 325ZM621.548 339C621.089 338.815 615.891 345.185 614.548 346C589.379 361.274 554.475 363.036 526.048 367.5C528.424 368.08 527.423 369.473 529.548 370C544.152 373.623 600.222 360.45 613.548 352C615.951 350.476 627.066 341.227 621.548 339ZM468.548 376C467.631 379.09 472.177 376.767 472.048 376.5C471.583 375.537 469.504 376.153 468.548 376Z" fill="#FDDF37"/>
<path d="M413.548 206C449.435 205.333 476.515 206.127 474.048 248.5C469.943 319.012 371.405 313.899 347.048 266.5C319.18 212.268 373.828 206.739 413.548 206ZM381.048 214C372.331 215.414 370.174 215.216 362.048 218C343.186 224.461 341.353 233.883 346.048 253C347.698 259.718 350.132 261.995 353.048 267C375.671 305.831 456.2 312.219 468.048 266.5C470.628 256.543 473.835 226.382 466.548 219C452.782 205.055 399.493 211.009 381.048 214Z" fill="#F9F8F6"/>
<path d="M214.548 208C230.664 207.083 289.021 208.546 298.048 222.5C306.3 235.256 293.432 266.408 285.048 277.5C258.264 312.935 175.071 312.258 166.048 258.5C158.651 214.428 173.615 210.33 214.548 208ZM207.048 214C200.259 212.859 190.444 214.835 184.048 217C178.419 218.906 169.509 222.996 168.048 229.5C167.52 231.85 168.592 253.713 169.048 257C169.797 262.402 172.553 271.02 175.048 276C188.649 303.149 243.057 301.977 266.548 289C282.627 280.118 307.373 236.044 293.548 222C282.62 210.899 225.707 211.999 209.548 212L207.048 214Z" fill="#FAF8F7"/>
<path d="M353.048 267L381.048 214C399.493 211.009 452.782 205.055 466.548 219C473.835 226.382 470.628 256.543 468.048 266.5C456.2 312.219 375.671 305.831 353.048 267Z" fill="black"/>
<path d="M94.0475 289C94.8615 284.284 103.464 263.422 103.048 260.5C102.758 258.462 79.0425 231.078 76.5475 229C69.1435 222.834 58.6765 218.461 49.5475 216C47.9175 214.293 52.3365 212.676 53.0475 212C79.3885 209.427 98.7435 228.762 118.048 243.5L108.048 298.5C104.374 296.653 97.5005 290.259 94.0475 289Z" fill="#F4BA37"/>
<path d="M175.048 276L207.048 214L209.548 212C225.707 211.999 282.62 210.899 293.548 222C307.373 236.044 282.627 280.118 266.548 289C243.057 301.977 188.649 303.149 175.048 276Z" fill="black"/>
<path d="M207.048 214L175.048 276C172.553 271.02 169.797 262.402 169.048 257L184.048 217C190.444 214.835 200.259 212.859 207.048 214Z" fill="#C7AAA9"/>
<path d="M381.048 214L353.048 267C350.132 261.995 347.698 259.718 346.048 253L362.048 218C370.174 215.216 372.331 215.414 381.048 214Z" fill="#C6A9A9"/>
<path d="M169.048 257C168.592 253.713 167.52 231.85 168.048 229.5C169.509 222.996 178.419 218.906 184.048 217L169.048 257Z" fill="black"/>
<path d="M362.048 218L346.048 253C341.353 233.883 343.186 224.461 362.048 218Z" fill="black"/>
<path d="M542.048 238C536.115 240.786 532.291 241.792 526.048 243.5C529.648 250.228 528.697 268.265 531.048 273.5C533.391 278.716 581.865 305.892 591.548 299L592.548 301C590.076 304.001 586.752 306.294 584.048 309C579.442 306.485 571.785 310.286 566.548 310C550.093 309.101 534.801 299.633 519.048 295.5L507.048 232.5C510.608 235.539 517.477 234.532 520.548 236C522.953 237.15 521.23 241.218 523.548 242C525.63 242.702 538.713 237.15 542.048 238Z" fill="#F4BA36"/>
<path d="M151.048 242C149.728 244.828 147.449 254.785 143.048 253C144.336 248.857 146.448 244.882 147.048 240.5C149.079 237.431 149.553 240.671 151.048 242Z" fill="#FCF4A0"/>
<path d="M492.048 312L488.548 315L489.048 309.5C486.833 305.15 485.331 327.523 485.048 328.5C484.495 330.408 484.114 334.503 481.048 332.5V279L487.048 255.5C491.961 274.208 492.95 292.746 492.048 312Z" fill="#FDDF37"/>
<path d="M471.048 349C470.935 350.303 471.224 351.715 471.048 353C466.24 388.166 433.559 429.653 404.548 449C349.554 485.675 284.447 483.536 228.548 450C175.611 418.242 139.433 355.28 147.548 293C154.74 316.566 160.624 339.258 174.048 360.5C227.791 445.54 349.491 469.079 428.548 402C436.956 394.866 454.996 375.849 460.048 366.5C461.854 363.158 458.078 363.011 459.048 360.5C459.48 359.38 469.253 350.158 471.048 349Z" fill="#EDA448"/>
<path d="M107.548 302C111.55 301.515 115.325 305.781 115.548 310L95.0476 311.5C94.6106 310.848 106.492 302.128 107.548 302Z" fill="#E59E42"/>
<path d="M367.548 325C406.035 321.593 377.067 367.491 360.548 379C329.274 400.789 275.28 395.296 254.048 361.5C248.629 352.875 239.392 330.812 255.548 328C267.799 325.868 300.772 334.387 317.548 334C335.693 333.581 351.977 326.379 367.548 325ZM367.548 332C360.128 331.616 337.402 339.292 326.548 340C318.319 340.537 307.859 340.345 299.548 340C290.129 339.609 252.29 327.687 262.048 345.5C269.823 359.692 307.402 363.483 322.048 361.5L262.048 360.5C289.572 395.232 344.004 394.137 371.048 359.5C371.876 352.212 351.892 358.997 348.048 357.5C358.79 353.57 372.309 348.343 374.048 335.5C372.265 333.387 370.431 332.149 367.548 332Z" fill="#8E4551"/>
<path d="M520.548 325C519.337 331.341 526.76 332.026 527.048 332.5C533.346 342.869 508.376 353.119 520.548 325Z" fill="#F5BE38"/>
<path d="M367.548 332C370.431 332.149 372.265 333.387 374.048 335.5C372.309 348.343 358.79 353.57 348.048 357.5C351.892 358.997 371.876 352.212 371.048 359.5C344.004 394.137 289.572 395.232 262.048 360.5L322.048 361.5C307.402 363.483 269.823 359.692 262.048 345.5C252.29 327.687 290.129 339.609 299.548 340C307.859 340.345 318.319 340.537 326.548 340C337.402 339.292 360.128 331.616 367.548 332Z" fill="#FEFEFE"/>
<path d="M643.048 333C638.356 349.404 625.822 360.582 610.548 367C591.928 374.824 562.662 379.101 543.048 378C541.678 377.262 538.994 379.491 538.048 375C559.66 373.329 607.628 365.986 624.548 353C632.185 347.138 634.842 337.318 643.048 333Z" fill="#E59E42"/>
<path d="M67.0476 349C66.7736 349.129 66.3086 348.865 66.0476 349C63.6326 346.04 59.2846 343.731 56.0476 345C66.2976 336.846 66.0216 338.533 76.0476 346.5L67.0476 349Z" fill="#E59E42"/>
<path d="M621.548 339C627.066 341.227 615.951 350.476 613.548 352C600.222 360.45 544.152 373.623 529.548 370C527.423 369.473 528.424 368.08 526.048 367.5C554.475 363.036 589.379 361.274 614.548 346C615.891 345.185 621.089 338.815 621.548 339Z" fill="#FDDF37"/>
<path d="M485.048 385C490.687 385.807 496.396 386.305 502.048 387C500.152 388.216 500.642 390.546 500.048 392C491.515 412.873 475.062 432.044 460.048 448.5C479.865 450.789 483.578 473.541 498.548 484L520.048 493C492.551 500.727 472.029 500.779 454.048 476C466.352 469.876 456.683 468.139 454.548 457C450.01 460.583 444.837 462.88 440.048 466C406.895 487.596 390.743 497.896 351.048 507C344.98 508.392 338.827 509.78 332.548 510L335.048 519C322.831 518.38 309.635 512.758 298.548 508L300.048 515C281.445 504.073 255.858 498.286 235.048 490C229.399 487.751 220.434 484.92 216.048 483C200.802 476.326 189.352 468.953 178.548 456C178.947 459.702 175.186 459.773 175.048 460C172.97 455.104 166.68 465.745 165.048 467C148.966 479.359 129.977 482.646 125.048 507C115.435 484.694 118.628 454.036 144.048 444C146.416 443.065 151.03 445.143 151.548 445C152.094 444.849 159.968 438.061 160.048 437.5C160.463 434.58 129.061 396.615 129.548 387C128.302 387.557 130.236 391.212 127.548 393C124.88 394.774 93.7436 395.353 86.5476 397C77.8476 398.992 68.9076 404.559 62.0476 410C62.5226 382.401 73.3676 368.112 100.048 363C104.65 362.118 106.211 365.045 106.548 365C107.619 364.858 114.75 358.719 119.048 360.5L112.048 346C118.64 345.026 122.903 343.554 129.048 341.5C165.729 507.642 380.527 552.208 475.048 404.5C478.754 398.709 481.417 390.803 485.048 385Z" fill="#FDDF37"/>
<path d="M66.0476 349C33.3486 365.885 18.6876 423.682 53.5476 444C60.3036 447.938 69.5466 450.768 77.0476 453C83.0486 457.642 97.9656 473.286 99.0476 480.5C100.952 493.193 89.0516 506.753 88.0476 492.5C87.7576 488.386 91.8976 483.989 91.0476 480.5C90.6956 479.057 74.0526 459.965 70.0476 459.5C71.0096 462.017 80.1846 474.268 80.0476 475.5C79.9676 476.218 75.4596 479.541 75.0476 481.5C73.6076 488.34 79.7486 497.605 78.0476 505C76.0396 512.961 66.2226 514.836 59.0476 516C60.1056 509.567 61.1646 502.46 56.5476 497C57.3146 505.214 57.9746 513.372 52.0476 520C47.1026 514.86 35.7656 518.737 29.0476 514C30.7216 507.654 35.5266 500.561 31.5476 494C29.5056 502.736 26.8486 511.247 19.5476 517C14.8046 513.205 9.70657 504.555 9.04757 498.5C7.70957 486.208 20.8886 406.598 25.0476 392.5C29.4716 377.504 43.7226 354.805 56.0476 345C59.2846 343.731 63.6326 346.04 66.0476 349Z" fill="#FDE137"/>
<path d="M112.048 346L119.048 360.5C114.75 358.719 107.619 364.858 106.548 365C106.211 365.045 104.65 362.118 100.048 363C99.4956 357.449 98.5326 351.214 94.0476 347.5C99.7586 344.556 106.222 346.861 112.048 346Z" fill="#F2B839"/>
<path d="M69.0477 352C55.6867 364.5 37.4677 381.676 38.0477 401C36.6697 404.662 37.6047 410.146 38.0477 414C40.9637 439.388 61.1447 440.699 77.0477 453C69.5467 450.768 60.3037 447.938 53.5477 444C18.6877 423.682 33.3487 365.885 66.0477 349C66.3087 348.865 66.7737 349.129 67.0477 349C67.5397 349.895 68.3747 351.321 69.0477 352Z" fill="#E59E42"/>
<path d="M468.548 376C469.504 376.153 471.583 375.537 472.048 376.5C472.177 376.767 467.631 379.09 468.548 376Z" fill="#FDEE9F"/>
<path d="M579.048 390C562.551 393.536 534.245 390.655 517.048 389L521.048 387.5L515.048 384C532.383 386.357 550.974 386.912 568.548 386C571.911 385.826 586.604 381.773 587.548 382C587.827 382.067 591.304 385.199 590.548 386C587.103 385.269 580.901 389.603 579.048 390Z" fill="#B57659"/>
<path d="M144.048 444C142.139 439.32 124.546 417.375 121.548 416C117.39 414.093 84.9036 411.38 79.5476 412C73.8656 412.658 67.8536 415.983 62.5476 418C59.4956 415.602 61.9956 413.006 62.0476 410C68.9076 404.559 77.8476 398.992 86.5476 397C93.7436 395.353 124.88 394.774 127.548 393C130.236 391.212 128.302 387.557 129.548 387C129.061 396.615 160.463 434.58 160.048 437.5C159.968 438.061 152.094 444.849 151.548 445C151.03 445.143 146.416 443.065 144.048 444Z" fill="#EBA93D"/>
<path d="M517.048 389C534.245 390.655 562.551 393.536 579.048 390C558.973 408.094 536.588 422.12 510.548 405C507.692 407.362 506.768 410.927 505.048 414C502.096 407.328 506.958 396.986 500.048 392C500.642 390.546 500.152 388.216 502.048 387C506.99 387.607 512.089 388.523 517.048 389Z" fill="#F9D739"/>
<path d="M505.048 414C503.881 416.084 496.104 431.473 496.048 432.5C495.932 434.647 507.104 470.262 509.048 473.5C513.305 480.593 521.449 486.477 529.048 489.5C527.431 491.55 522.617 492.278 520.048 493L498.548 484C483.578 473.541 479.865 450.789 460.048 448.5C475.062 432.044 491.515 412.873 500.048 392C506.958 396.986 502.096 407.328 505.048 414Z" fill="#E39C45"/>
<path d="M216.048 483L213.048 488C208.868 487.692 193.167 496.893 187.048 497C183.74 494.843 182.672 493.969 180.048 491L173.048 468C173.236 466.588 174.541 460.832 175.048 460C175.186 459.773 178.947 459.702 178.548 456C189.352 468.953 200.802 476.326 216.048 483Z" fill="#E59E42"/>
<path d="M454.048 476C451.283 477.376 451.974 475.647 446.048 480C439.887 477.615 435.87 471.82 440.048 466C444.837 462.88 450.01 460.583 454.548 457C456.683 468.139 466.352 469.876 454.048 476Z" fill="#E8A641"/>
<path d="M446.048 480C444.401 481.21 432.356 490.648 432.048 491.5C430.624 495.434 433.659 507.07 430.048 512C424.86 505.137 411.195 500.063 407.548 490C404.562 494.191 412.205 504.741 415.048 508L410.048 514C403.382 510.865 387.176 512.646 381.048 517C375.206 514.795 368.369 512.03 362.048 513C361.42 507.835 351.138 511.057 351.048 507C390.743 497.896 406.895 487.596 440.048 466C435.87 471.82 439.887 477.615 446.048 480Z" fill="#E59E42"/>
<path d="M165.048 467C162.373 470.348 164.607 487.648 162.548 489C160.969 490.037 149.317 492.154 144.548 495C138.027 498.891 132.071 506.979 127.548 513C126.111 512.908 125.567 508.205 125.048 507C129.977 482.646 148.966 479.359 165.048 467Z" fill="#E8A141"/>
<path d="M180.048 491C172.927 482.942 171.514 479.529 173.048 468L180.048 491Z" fill="#E59E42"/>
<path d="M213.048 488C215.046 488.147 225.646 494.36 227.048 496.5C228.29 498.395 231.958 514.244 233.048 516C220.235 527.558 212.337 540.187 212.048 558C202.044 547.816 194.368 530.929 196.048 517L216.548 512C215.953 505.867 212.212 506.704 208.048 507C200.989 503.479 193.747 501.367 187.048 497C193.167 496.893 208.868 487.692 213.048 488Z" fill="#ECC140"/>
<path d="M59.0477 516C66.2227 514.836 76.0397 512.961 78.0477 505C79.3817 499.712 78.7267 495.241 79.5477 490C81.6137 495.628 85.9327 506.011 83.0477 511.5C82.3407 512.846 59.0607 528.019 56.0477 521.5C55.7197 520.036 58.9967 516.309 59.0477 516Z" fill="#F6CB49"/>
<path d="M300.047 515C301.782 516.019 302.608 517.711 303.047 518C301.592 519.984 298.486 522.631 298.047 525C289 524.871 237.596 516.619 237.047 507.5C236.971 506.243 239.998 502.676 239.047 497.5C238.7 495.61 235.004 492.363 235.047 490C255.857 498.286 281.444 504.073 300.047 515Z" fill="#E59E42"/>
<path d="M430.048 512C430.727 512.899 436.25 523.922 433.548 524C429.082 517.566 419.759 513.4 415.048 508C412.205 504.741 404.562 494.191 407.548 490C411.195 500.063 424.86 505.137 430.048 512Z" fill="#E3A942"/>
<path d="M196.048 517C196.149 516.165 194.11 510.496 197.548 509C198.038 508.787 207.515 507.038 208.048 507C212.212 506.704 215.953 505.867 216.548 512L196.048 517Z" fill="#E59E42"/>
<path d="M351.048 507C351.138 511.057 361.42 507.835 362.048 513C353.033 514.384 349.014 519.709 335.048 519L332.548 510C338.827 509.78 344.98 508.392 351.048 507Z" fill="#E39B44"/>
<path d="M410.048 514C415.867 516.737 464.294 577.175 464.048 581.5C464.026 581.89 459.543 585.487 459.048 587.5C457.918 592.093 461.831 602.365 458.548 605C448.139 608.477 451.234 604.366 448.048 597C448.428 595.187 450.999 593.725 451.048 593.5C453.068 584.314 419.817 532.047 411.548 526C406.023 521.96 400.756 518.321 399.048 527C394.078 523.139 386.999 519.246 381.048 517C387.176 512.646 403.382 510.865 410.048 514Z" fill="#FCDE38"/>
<path d="M52.0477 520C45.4097 527.423 28.8247 524.919 27.0477 517.5C26.3537 514.604 28.9967 514.195 29.0477 514C35.7657 518.737 47.1027 514.86 52.0477 520Z" fill="#F7CC47"/>
<path d="M212.048 558C212.337 540.187 220.235 527.558 233.048 516C237.051 522.448 251.115 523.119 251.048 524.5C231.997 533.206 219.849 540.564 216.548 563C215.961 563.08 212.728 558.692 212.048 558Z" fill="#DF9846"/>
<path d="M319.048 529C321.864 531.413 322.007 537.477 327.048 538C325.118 545.752 323.323 554.449 324.048 562.5C324.518 567.722 330.17 574.682 327.048 579C316.805 574.035 304.096 567.547 298.048 557.5C296.612 555.115 290.901 540.161 291.048 538.5C291.587 532.393 299.672 531.02 300.048 530.5C301.476 528.528 297.936 525.602 298.048 525C298.487 522.631 301.593 519.984 303.048 518C308.376 521.514 314.201 524.846 319.048 529Z" fill="#EDC33F"/>
<path d="M448.048 597C438.258 574.366 418.76 542.31 399.048 527C400.756 518.321 406.023 521.96 411.548 526C419.817 532.047 453.068 584.314 451.048 593.5C450.999 593.725 448.428 595.187 448.048 597Z" fill="#F9CA4C"/>
<path d="M265.548 529L282.548 532L284.048 534.5C272.799 562.119 251.497 592.803 218.548 593L223.048 588.5C222.943 586.359 202.657 588.536 199.548 589C195.055 589.67 193.903 592.936 193.548 593C180.668 595.33 187.978 573.19 192.548 572C194.33 571.536 201.912 575.673 204.548 576C239.28 580.314 260.154 563.028 265.548 529Z" fill="#FCE236"/>
<path d="M344.048 543C337.802 544.318 338.107 539.99 335.048 536C339.036 535.109 342.774 532.494 347.048 532C347.921 535.551 345.021 539.477 344.048 543Z" fill="#D99447"/>
<path d="M390.548 532C392.044 531.125 412.933 554.839 414.548 557C415.506 558.282 417.081 558.941 415.548 561C404.711 554.127 392.059 545.995 390.548 532Z" fill="#EDC841"/>
<path d="M335.048 536C338.107 539.99 337.802 544.318 344.048 543C340.335 556.449 333.718 570.816 341.048 584.5C339.76 586.816 328.62 579.762 327.048 579C330.17 574.682 324.518 567.722 324.048 562.5C323.323 554.449 325.118 545.752 327.048 538C327.458 538.043 333.603 536.323 335.048 536Z" fill="#E59E42"/>
<path d="M171.548 547C175.653 546.493 179.683 547.525 180.048 552.5C179.836 552.908 172.81 555.011 171.548 556C160.238 564.863 118.442 617.538 114.048 630.5C109.586 643.661 108.61 661 119.048 671.5C102.184 666.917 99.0606 647.117 104.048 631.5C108.417 617.82 159.459 548.494 171.548 547Z" fill="#FDFDFD"/>
<path d="M180.548 556C184.341 555.623 190.59 559.686 192.048 563.5C185.202 564.487 178.482 573.411 177.048 579.5C176.13 583.399 177.397 593.836 177.048 594.5C175.739 596.993 163.228 601.293 162.048 603.5C158.422 610.283 165.654 614.084 165.048 615.5C149.773 608.367 153.94 618.038 150.048 624.5C146.666 630.114 133.343 616.692 126.548 619C125.121 617.898 129.209 612.794 130.048 611.5C136.236 601.948 155.98 577.895 164.048 569.5C167.156 566.266 176.44 556.409 180.548 556Z" fill="#69A2C8"/>
<path d="M531.048 569C532.267 567.354 533.589 566.373 533.048 564C543.432 558.636 555.576 554.007 567.048 559.5C552.333 561.379 538.819 567.172 528.548 578L531.048 569Z" fill="#6D9DC0"/>
<path d="M531.048 569C527.476 573.824 516.664 594.897 515.048 596C512.203 597.942 501.728 599.714 498.048 604C500.916 600.819 503.349 597.211 506.048 594C509.777 589.564 515.619 586.641 517.048 584.5C519.82 580.346 517.875 574.972 518.048 574.5C518.534 573.172 530.822 565.15 533.048 564C533.589 566.373 532.267 567.354 531.048 569Z" fill="#FDFCFD"/>
<path d="M562.548 565C575.866 563.449 582.527 565.35 589.048 577.5C588.755 579.443 577.058 577.498 574.548 578C559.036 581.102 545.439 600.838 534.548 611C505.456 592.349 542.812 567.299 562.548 565Z" fill="#FDFDFD"/>
<path d="M187.548 569C182.835 581.182 177.611 589.816 189.548 600C176.443 595.023 178.991 577.079 187.548 569Z" fill="#E9E0CF"/>
<path d="M513.548 574C517.845 573.874 513.593 585.656 509.548 585C505.994 584.423 512.927 574.018 513.548 574Z" fill="#FCF9FA"/>
<path d="M443.048 608L428.048 577C436.909 584.922 438.942 595.222 446.048 604.5C446.064 607.128 443.502 607.323 443.048 608Z" fill="#C09B48"/>
<path d="M497.548 584C500.945 586.021 497.77 595.077 494.548 595L497.548 584Z" fill="#F5EFEE"/>
<path d="M579.548 584C593.491 582.097 588.777 589.352 584.048 597.5C575.353 612.48 528.5 659.768 513.548 669C501.019 676.736 483.77 684.095 469.048 683.5C483.368 673.446 497.738 662.943 510.548 651C525.459 637.098 563.188 586.233 579.548 584Z" fill="#9F8084"/>
<path d="M503.048 593C503.02 593.065 502.727 592.752 502.048 594L502.548 585C507.375 587.71 504.272 590.2 503.048 593Z" fill="#E3DEE4"/>
<path d="M473.048 630C469.278 637.049 472.116 644.526 470.048 653C465.571 655.825 460.944 661.893 455.048 663.5C459.443 650.088 442.113 632.119 444.048 620.5C445.979 608.903 461.573 614.796 465.048 607.5C469.387 598.39 456.656 580.792 483.048 590.5C476.615 603.972 466.594 612.572 473.048 630Z" fill="#69A2C8"/>
<path d="M506.048 594C503.349 597.211 500.916 600.819 498.048 604C491.086 611.722 483.238 617.375 477.048 626C475.248 625.935 476.403 623.708 476.048 623C480.727 613.866 489.426 608.302 496.048 601C498.66 598.119 499.774 598.179 502.048 594C502.727 592.752 503.02 593.065 503.048 593C502.889 596.291 503.801 593.912 506.048 594Z" fill="#645369"/>
<path d="M487.548 595C489.01 594.104 491.374 601.139 488.548 602L487.548 595Z" fill="#EAE7E2"/>
<path d="M515.048 596C519.742 619.461 489.255 642.51 471.548 654C470.297 654.812 470.124 652.952 470.048 653C472.116 644.526 469.278 637.049 473.048 630C473.181 629.751 475.69 627.892 477.048 626C483.238 617.375 491.086 611.722 498.048 604C501.728 599.714 512.203 597.942 515.048 596Z" fill="#69A2C8"/>
<path d="M175.548 597C178.894 596.196 194.405 612.228 186.548 616C183.672 609.585 180.886 603.349 173.048 601.5C172.378 600.19 174.597 597.229 175.548 597Z" fill="#FBFAFA"/>
<path d="M496.047 601C489.425 608.302 480.726 613.866 476.047 623C473.814 618.549 473.851 613.8 477.047 609.5C480.761 604.504 480.426 610.033 483.547 610C487.722 609.956 491.606 597.921 496.047 601Z" fill="#F5F3F4"/>
<path d="M195.548 601C198.543 601.392 192.225 609.352 190.548 609C187.218 608.301 186.059 599.757 195.548 601Z" fill="#69A2C8"/>
<path d="M166.548 602C172.552 602.895 195.077 629.836 182.548 630C181.055 630.019 170.99 606.258 164.048 607.5L166.548 602Z" fill="#FCFBFB"/>
<path d="M521.548 602C523.914 608.243 527.99 611.112 534.048 613.5C512.092 640.009 486.163 662.873 457.548 682C454.875 680.286 451.947 674.535 453.048 671.5C453.798 669.434 484.227 651.411 489.548 647C502.8 636.013 519.859 619.786 521.548 602Z" fill="#FEFEFE"/>
<path d="M156.548 615C161.523 613.97 178.787 635.063 179.048 637.5C179.246 639.343 175.58 641.531 174.548 643C172.835 643.09 166.576 629.119 164.048 626.5C161.781 624.151 145.507 617.286 156.548 615Z" fill="#FCFBFC"/>
<path d="M123.548 621C136.079 617.003 156.323 645.244 164.048 652.5C157.85 658.92 141.218 672.401 132.548 673C107.543 674.727 115.752 623.487 123.548 621Z" fill="#FEFEFE"/>
<path d="M151.548 625C155.134 624.189 174.757 647.327 167.548 649C164.918 647.908 149.189 629.89 149.048 628.5C148.941 627.451 150.917 625.143 151.548 625Z" fill="#FCFBFB"/>
</svg>
